
<global>
</global>

<group>
ampeg_attack=0.005
ampeg_release=0.05
group_label=RR1
hivel=85
seq_length=2
seq_position=1

<region>
hivel=85
key=A#3
lovel=0
offset=2087
sample=Precisionbass_sustain_MP_A#3_RR1.opus
volume=-2.51
</region>

<region>
hivel=85
key=A3
lovel=0
offset=2040
sample=Precisionbass_sustain_MP_A3_RR1.opus
volume=+0.27
</region>

<region>
hivel=85
key=B3
lovel=0
offset=1631
sample=Precisionbass_sustain_MP_B3_RR1.opus
volume=-2.32
</region>

<region>
hivel=85
key=C#4
lovel=0
offset=2182
sample=Precisionbass_sustain_MP_C#4_RR1.opus
volume=-3.71
</region>

<region>
hikey=C4
hivel=85
lokey=C4
lovel=0
offset=1976
sample=Precisionbass_sustain_MP_C4_RR1.opus
volume=-2.48
</region>

<region>
hivel=85
key=D#4
lovel=0
offset=10703
sample=Precisionbass_sustain_MP_D#4_RR1.opus
volume=-4.04
</region>

<region>
hivel=85
key=D4
lovel=0
offset=2311
sample=Precisionbass_sustain_MP_D4_RR1.opus
volume=-3.98
</region>

<region>
hivel=85
key=G#3
lovel=0
offset=2692
sample=Precisionbass_sustain_MP_G#3_RR1.opus
volume=-2.88
</region>

<region>
hivel=85
key=D#3
lovel=0
offset=7566
sample=Precisionbass_sustain_MP_D#3_RR1.opus
volume=-3.89
</region>

<region>
hivel=85
key=D3
lovel=0
offset=6273
sample=Precisionbass_sustain_MP_D3_RR1.opus
volume=-5.90
</region>

<region>
hivel=85
key=E3
lovel=0
offset=3796
sample=Precisionbass_sustain_MP_E3_RR1.opus
volume=-3.45
</region>

<region>
hivel=85
key=F#3
lovel=0
offset=5931
sample=Precisionbass_sustain_MP_F#3_RR1.opus
volume=-2.35
</region>

<region>
end=337162
hivel=85
key=F3
lovel=0
offset=1554
sample=Precisionbass_sustain_MP_F3_RR1.opus
volume=-6.35
</region>

<region>
hivel=85
key=G3
lovel=0
offset=8191
sample=Precisionbass_sustain_MP_G3_RR1.opus
volume=-3.32
</region>

<region>
hivel=85
key=A#1
lovel=0
offset=7112
sample=Precisionbass_sustain_MP_A#1_RR1.opus
volume=-4.61
</region>

<region>
hivel=85
key=A#2
lovel=0
offset=8791
sample=Precisionbass_sustain_MP_A#2_RR1.opus
volume=-1.14
</region>

<region>
hivel=85
key=A2
lovel=0
offset=7334
sample=Precisionbass_sustain_MP_A2_RR1.opus
volume=-2.65
</region>

<region>
hivel=85
key=B1
lovel=0
offset=9358
sample=Precisionbass_sustain_MP_B1_RR1.opus
volume=-4.02
</region>

<region>
hivel=85
key=B2
lovel=0
offset=9474
sample=Precisionbass_sustain_MP_B2_RR1.opus
volume=-3.65
</region>

<region>
hivel=85
key=C#2
lovel=0
offset=8153
sample=Precisionbass_sustain_MP_C#2_RR1.opus
volume=-5.98
</region>

<region>
hivel=85
key=C#3
lovel=0
offset=7569
sample=Precisionbass_sustain_MP_C#3_RR1.opus
volume=-6.11
</region>

<region>
hivel=85
key=C2
lovel=0
offset=8316
sample=Precisionbass_sustain_MP_C2_RR1.opus
volume=-4.57
</region>

<region>
hivel=85
key=C3
lovel=0
offset=9733
sample=Precisionbass_sustain_MP_C3_RR1.opus
volume=-4.00
</region>

<region>
hivel=85
key=D#2
lovel=0
offset=10872
sample=Precisionbass_sustain_MP_D#2_RR1.opus
volume=-0.40
</region>

<region>
hivel=85
key=D2
lovel=0
offset=9848
sample=Precisionbass_sustain_MP_D2_RR1.opus
volume=+0.56
</region>

<region>
end=659898
hivel=85
key=E2
lovel=0
offset=10043
sample=Precisionbass_sustain_MP_E2_RR1.opus
volume=-3.48
</region>

<region>
end=557930
hivel=85
key=F#2
lovel=0
offset=6494
sample=Precisionbass_sustain_MP_F#2_RR1.opus
volume=-2.97
</region>

<region>
end=587767
hivel=85
key=F2
lovel=0
offset=8217
sample=Precisionbass_sustain_MP_F2_RR1.opus
volume=-4.86
</region>

<region>
end=644635
hivel=85
key=G#2
lovel=0
offset=10533
sample=Precisionbass_sustain_MP_G#2_RR1.opus
volume=+0.37
</region>

<region>
hivel=85
key=G2
lovel=0
offset=3492
sample=Precisionbass_sustain_MP_G2_RR1.opus
volume=-2.02
</region>

<region>
hivel=85
key=A1
lovel=0
offset=2146
sample=Precisionbass_sustain_MP_A1_RR1.opus
volume=-3.35
</region>

<region>
hivel=85
key=F#1
lovel=0
offset=9048
sample=Precisionbass_sustain_MP_F#1_RR1.opus
volume=-6.70
</region>

<region>
hikey=F1
hivel=85
lokey=E1
lovel=0
offset=8261
pitch_keycenter=F1
sample=Precisionbass_sustain_MP_F1_RR1.opus
volume=-7.11
</region>

<region>
hivel=85
key=G#1
lovel=0
offset=6112
sample=Precisionbass_sustain_MP_G#1_RR1.opus
volume=-8.32
</region>

<region>
hivel=85
key=G1
lovel=0
offset=10117
sample=Precisionbass_sustain_MP_G1_RR1.opus
volume=-7.61
</region>
</group>

<group>
ampeg_attack=0.005
ampeg_release=0.05
group_label=RR2
hivel=85
seq_length=2
seq_position=2

<region>
hivel=85
key=A#3
lovel=0
offset=2561
sample=Precisionbass_sustain_MP_A#3_RR2.opus
volume=-0.82
</region>

<region>
hivel=85
key=A3
lovel=0
offset=4453
sample=Precisionbass_sustain_MP_A3_RR2.opus
volume=+0.68
</region>

<region>
hivel=85
key=B3
lovel=0
offset=10370
sample=Precisionbass_sustain_MP_B3_RR2.opus
volume=-3.23
</region>

<region>
hivel=85
key=C#4
lovel=0
offset=8341
sample=Precisionbass_sustain_MP_C#4_RR2.opus
volume=+1.03
</region>

<region>
end=288936
hikey=C4
hivel=85
lokey=C4
lovel=0
offset=3786
sample=Precisionbass_sustain_MP_C4_RR2.opus
volume=-1.29
</region>

<region>
hivel=85
key=D#4
lovel=0
offset=4979
sample=Precisionbass_sustain_MP_D#4_RR2.opus
volume=-5.03
</region>

<region>
end=337660
hivel=85
key=D4
lovel=0
offset=7462
sample=Precisionbass_sustain_MP_D4_RR2.opus
volume=-4.44
</region>

<region>
hivel=85
key=G#3
lovel=0
offset=4754
sample=Precisionbass_sustain_MP_G#3_RR2.opus
volume=-2.53
</region>

<region>
hivel=85
key=C#3
lovel=0
offset=9106
sample=Precisionbass_sustain_MP_C#3_RR2.opus
volume=-4.86
</region>

<region>
hivel=85
key=D#3
lovel=0
offset=2432
sample=Precisionbass_sustain_MP_D#3_RR2.opus
volume=-5.18
</region>

<region>
end=307462
hivel=85
key=D3
lovel=0
offset=7703
sample=Precisionbass_sustain_MP_D3_RR2.opus
volume=-2.69
</region>

<region>
hivel=85
key=E3
lovel=0
offset=4678
sample=Precisionbass_sustain_MP_E3_RR2.opus
volume=-5.63
</region>

<region>
hivel=85
key=F#3
lovel=0
offset=3121
sample=Precisionbass_sustain_MP_F#3_RR2.opus
volume=-4.29
</region>

<region>
hivel=85
key=F3
lovel=0
offset=1659
sample=Precisionbass_sustain_MP_F3_RR2.opus
volume=-6.22
</region>

<region>
hivel=85
key=G3
lovel=0
offset=1815
sample=Precisionbass_sustain_MP_G3_RR2.opus
volume=-3.29
</region>

<region>
hivel=85
key=A#1
lovel=0
offset=2561
sample=Precisionbass_sustain_MP_A#1_RR2.opus
volume=-4.15
</region>

<region>
hivel=85
key=A#2
lovel=0
offset=7065
sample=Precisionbass_sustain_MP_A#2_RR2.opus
volume=-3.09
</region>

<region>
hivel=85
key=A2
lovel=0
offset=3327
sample=Precisionbass_sustain_MP_A2_RR2.opus
volume=-2.71
</region>

<region>
hivel=85
key=B1
lovel=0
offset=1751
sample=Precisionbass_sustain_MP_B1_RR2.opus
volume=-2.92
</region>

<region>
hivel=85
key=B2
lovel=0
offset=5330
sample=Precisionbass_sustain_MP_B2_RR2.opus
volume=-3.54
</region>

<region>
hivel=85
key=C#2
lovel=0
offset=3466
sample=Precisionbass_sustain_MP_C#2_RR2.opus
volume=-3.17
</region>

<region>
hivel=85
key=C2
lovel=0
offset=3594
sample=Precisionbass_sustain_MP_C2_RR2.opus
volume=-3.54
</region>

<region>
hivel=85
key=C3
lovel=0
offset=6053
sample=Precisionbass_sustain_MP_C3_RR2.opus
volume=-6.08
</region>

<region>
hivel=85
key=D#2
lovel=0
offset=1622
sample=Precisionbass_sustain_MP_D#2_RR2.opus
volume=-1.57
</region>

<region>
hivel=85
key=D2
lovel=0
offset=8927
sample=Precisionbass_sustain_MP_D2_RR2.opus
volume=+2.70
</region>

<region>
hivel=85
key=E2
lovel=0
offset=3855
sample=Precisionbass_sustain_MP_E2_RR2.opus
volume=-2.38
</region>

<region>
end=588015
hivel=85
key=F#2
lovel=0
offset=5163
sample=Precisionbass_sustain_MP_F#2_RR2.opus
volume=-3.49
</region>

<region>
end=621897
hivel=85
key=F2
lovel=0
offset=3597
sample=Precisionbass_sustain_MP_F2_RR2.opus
volume=-1.40
</region>

<region>
end=662534
hivel=85
key=G#2
lovel=0
offset=8287
sample=Precisionbass_sustain_MP_G#2_RR2.opus
volume=+0.82
</region>

<region>
hivel=85
key=G2
lovel=0
offset=6137
sample=Precisionbass_sustain_MP_G2_RR2.opus
volume=-0.79
</region>

<region>
hivel=85
key=A1
lovel=0
offset=7742
sample=Precisionbass_sustain_MP_A1_RR2.opus
volume=-3.05
</region>

<region>
hivel=85
key=F#1
lovel=0
offset=6354
sample=Precisionbass_sustain_MP_F#1_RR2.opus
volume=-5.28
</region>

<region>
hikey=F1
hivel=85
lokey=E1
lovel=0
offset=6450
pitch_keycenter=F1
sample=Precisionbass_sustain_MP_F1_RR2.opus
volume=-6.68
</region>

<region>
hivel=85
key=G#1
lovel=0
offset=6191
sample=Precisionbass_sustain_MP_G#1_RR2.opus
volume=-9.26
</region>

<region>
hivel=85
key=G1
lovel=0
offset=8539
sample=Precisionbass_sustain_MP_G1_RR2.opus
volume=-6.77
</region>
</group>

<group>
ampeg_attack=0.005
ampeg_release=0.05
group_label=FF

<region>
hikey=B1
hivel=127
lokey=A#1
lovel=86
offset=10046
pitch_keycenter=A#1
sample=Precisionbass_SustainExtended_MP_A#2.opus
volume=-9.26
</region>

<region>
hikey=B2
hivel=127
lokey=A#2
lovel=86
offset=1776
pitch_keycenter=A#2
sample=Precisionbass_SustainExtended_MP_A#3.opus
volume=-5.00
</region>

<region>
end=446666
hikey=B3
hivel=127
lokey=A#3
lovel=86
offset=8567
pitch_keycenter=A#3
sample=Precisionbass_SustainExtended_MP_A#4.opus
volume=-2.34
</region>

<region>
hikey=C#2
hivel=127
lokey=C2
lovel=86
offset=6429
pitch_keycenter=C2
sample=Precisionbass_SustainExtended_MP_C3.opus
volume=-2.16
</region>

<region>
hikey=C#3
hivel=127
lokey=C3
lovel=86
offset=6962
pitch_keycenter=C3
sample=Precisionbass_SustainExtended_MP_C4.opus
volume=-5.06
</region>

<region>
end=332194
hikey=C#4
hivel=127
lokey=C4
lovel=86
offset=9349
sample=Precisionbass_SustainExtended_MP_C5.opus
volume=-3.47
</region>

<region>
end=440506
hikey=D#2
hivel=127
lokey=D2
lovel=86
offset=4808
pitch_keycenter=D2
sample=Precisionbass_SustainExtended_MP_D3.opus
volume=-3.74
</region>

<region>
hikey=D#3
hivel=127
lokey=D3
lovel=86
offset=7652
pitch_keycenter=D3
sample=Precisionbass_SustainExtended_MP_D4.opus
volume=-5.46
</region>

<region>
end=413876
hikey=D#4
hivel=127
lokey=D4
lovel=86
offset=8522
pitch_keycenter=D4
sample=Precisionbass_SustainExtended_MP_D5.opus
volume=-4.74
</region>

<region>
hikey=F1
hivel=127
lokey=E1
lovel=86
offset=9402
pitch_keycenter=E1
sample=Precisionbass_SustainExtended_MP_E2.opus
volume=-8.16
</region>

<region>
hikey=F2
hivel=127
lokey=E2
lovel=86
offset=2411
pitch_keycenter=E2
sample=Precisionbass_SustainExtended_MP_E3.opus
volume=-6.52
</region>

<region>
end=436268
hikey=F3
hivel=127
lokey=E3
lovel=86
offset=5941
pitch_keycenter=E3
sample=Precisionbass_SustainExtended_MP_E4.opus
volume=-4.13
</region>

<region>
end=437538
hikey=G1
hivel=127
lokey=F#1
lovel=86
offset=4795
pitch_keycenter=F#1
sample=Precisionbass_SustainExtended_MP_F#2.opus
volume=-7.66
</region>

<region>
hikey=G2
hivel=127
lokey=F#2
lovel=86
offset=10893
pitch_keycenter=F#2
sample=Precisionbass_SustainExtended_MP_F#3.opus
volume=-6.69
</region>

<region>
hikey=G3
hivel=127
lokey=F#3
lovel=86
offset=1615
pitch_keycenter=F#3
sample=Precisionbass_SustainExtended_MP_F#4.opus
volume=-5.04
</region>

<region>
hikey=A1
hivel=127
lokey=G#1
lovel=86
offset=9425
pitch_keycenter=G#1
sample=Precisionbass_SustainExtended_MP_G#2.opus
volume=-8.36
</region>

<region>
hikey=A2
hivel=127
lokey=G#2
lovel=86
offset=9399
pitch_keycenter=G#2
sample=Precisionbass_SustainExtended_MP_G#3.opus
volume=-4.00
</region>

<region>
end=436601
hikey=A3
hivel=127
lokey=G#3
lovel=86
offset=8518
pitch_keycenter=G#3
sample=Precisionbass_SustainExtended_MP_G#4.opus
volume=-4.43
</region>
</group>

<group>
ampeg_attack=0.005
ampeg_release=0.05
group_label=Extended

<region>
hikey=D#1
hivel=127
lokey=D1
lovel=0
offset=10777
pitch_keycenter=D1
sample=Precisionbass_SustainExtended_MP_D2.opus
volume=-10.01
</region>
</group>

<group>
ampeg_attack=0.025
ampeg_release=1.25
group_label=Releases
rt_decay=18
trigger=release

<region>
hivel=127
key=A#3
lovel=0
offset=12009
sample=Precisionbass_staccatissimo_MP_A#3_RR1.opus
</region>

<region>
hivel=127
key=A3
lovel=0
offset=10004
sample=Precisionbass_staccatissimo_MP_A3_RR1.opus
</region>

<region>
hivel=127
key=B3
lovel=0
offset=7200
sample=Precisionbass_staccatissimo_MP_B3_RR1.opus
</region>

<region>
hivel=127
key=C#4
lovel=0
offset=8983
sample=Precisionbass_staccatissimo_MP_C#4_RR1.opus
</region>

<region>
hikey=C4
hivel=127
lokey=C4
lovel=0
offset=7631
sample=Precisionbass_staccatissimo_MP_C4_RR1.opus
</region>

<region>
hivel=127
key=D#4
lovel=0
offset=17989
sample=Precisionbass_staccatissimo_MP_D#4_RR1.opus
</region>

<region>
hivel=127
key=D4
lovel=0
offset=10338
sample=Precisionbass_staccatissimo_MP_D4_RR1.opus
</region>

<region>
hivel=127
key=G#3
lovel=0
offset=8541
sample=Precisionbass_staccatissimo_MP_G#3_RR1.opus
</region>

<region>
hivel=127
key=C#3
lovel=0
offset=15688
sample=Precisionbass_staccatissimo_MP_C#3_RR1.opus
</region>

<region>
hivel=127
key=D#3
lovel=0
offset=17467
sample=Precisionbass_staccatissimo_MP_D#3_RR1.opus
</region>

<region>
hivel=127
key=D3
lovel=0
offset=14486
sample=Precisionbass_staccatissimo_MP_D3_RR1.opus
</region>

<region>
hivel=127
key=E3
lovel=0
offset=11792
sample=Precisionbass_staccatissimo_MP_E3_RR1.opus
</region>

<region>
hivel=127
key=F#3
lovel=0
offset=7724
sample=Precisionbass_staccatissimo_MP_F#3_RR1.opus
</region>

<region>
hivel=127
key=F3
lovel=0
offset=9302
sample=Precisionbass_staccatissimo_MP_F3_RR1.opus
</region>

<region>
hivel=127
key=G3
lovel=0
offset=15443
sample=Precisionbass_staccatissimo_MP_G3_RR1.opus
</region>

<region>
hivel=127
key=A#1
lovel=0
offset=14621
sample=Precisionbass_staccatissimo_MP_A#1_RR1.opus
</region>

<region>
hivel=127
key=A#2
lovel=0
offset=14287
sample=Precisionbass_staccatissimo_MP_A#2_RR1.opus
</region>

<region>
hivel=127
key=A2
lovel=0
offset=8647
sample=Precisionbass_staccatissimo_MP_A2_RR1.opus
</region>

<region>
hivel=127
key=B1
lovel=0
offset=7975
sample=Precisionbass_staccatissimo_MP_B1_RR1.opus
</region>

<region>
hivel=127
key=B2
lovel=0
offset=14424
sample=Precisionbass_staccatissimo_MP_B2_RR1.opus
</region>

<region>
hivel=127
key=C#2
lovel=0
offset=8643
sample=Precisionbass_staccatissimo_MP_C#2_RR1.opus
</region>

<region>
hivel=127
key=C2
lovel=0
offset=8584
sample=Precisionbass_staccatissimo_MP_C2_RR1.opus
</region>

<region>
hivel=127
key=C3
lovel=0
offset=13177
sample=Precisionbass_staccatissimo_MP_C3_RR1.opus
</region>

<region>
hivel=127
key=D#2
lovel=0
offset=16154
sample=Precisionbass_staccatissimo_MP_D#2_RR1.opus
</region>

<region>
hivel=127
key=D2
lovel=0
offset=13026
sample=Precisionbass_staccatissimo_MP_D2_RR1.opus
</region>

<region>
hivel=127
key=E2
lovel=0
offset=9393
sample=Precisionbass_staccatissimo_MP_E2_RR1.opus
</region>

<region>
hivel=127
key=F#2
lovel=0
offset=14610
sample=Precisionbass_staccatissimo_MP_F#2_RR1.opus
</region>

<region>
hivel=127
key=F2
lovel=0
offset=8675
sample=Precisionbass_staccatissimo_MP_F2_RR1.opus
</region>

<region>
hivel=127
key=G#2
lovel=0
offset=14298
sample=Precisionbass_staccatissimo_MP_G#2_RR1.opus
</region>

<region>
hivel=127
key=G2
lovel=0
offset=7843
sample=Precisionbass_staccatissimo_MP_G2_RR1.opus
</region>

<region>
hivel=127
key=A1
lovel=0
offset=7378
sample=Precisionbass_staccatissimo_MP_A1_RR1.opus
</region>

<region>
hikey=E1
hivel=127
lokey=D1
lovel=0
offset=11655
pitch_keycenter=E1
sample=Precisionbass_staccatissimo_MP_E1_RR1.opus
</region>

<region>
hivel=127
key=F#1
lovel=0
offset=8732
sample=Precisionbass_staccatissimo_MP_F#1_RR1.opus
</region>

<region>
hivel=127
key=F1
lovel=0
offset=8347
sample=Precisionbass_staccatissimo_MP_F1_RR1.opus
</region>

<region>
hivel=127
key=G#1
lovel=0
offset=8467
sample=Precisionbass_staccatissimo_MP_G#1_RR1.opus
</region>

<region>
hivel=127
key=G1
lovel=0
offset=8008
sample=Precisionbass_staccatissimo_MP_G1_RR1.opus
</region>
</group>